# xmcd CD database file
#
# Track frame offsets:
#	150
#	25557
#	44853
#	60441
#	77524
#
# Disc length: 1218 seconds
#
# Revision: 1
# Processed by: cddbd v1.4PL0 Copyright (c) Steve Scherf et al.
# Submitted via: CDex 1.40Beta9
#
DISCID=3304c005
DTITLE=Naftalin - Pilot single
DYEAR=2002
DGENRE=Blues
TTITLE0=Stariat bard
TTITLE1=Pristan za dvama
TTITLE2=Kukuvitsa
TTITLE3=Georgi Mintchev blues
TTITLE4=Beliat kalpak
EXTD=YEAR: 2002 ID3G: 0
EXTT0=
EXTT1=
EXTT2=
EXTT3=
EXTT4=
PLAYORDER=
